<svg width="210" height="211" viewBox="0 0 210 211" fill="none" xmlns="http://www.w3.org/2000/svg">
<g clip-path="url(#clip0_1043_117)">
<path d="M159.338 122.474H143.406C142.024 122.474 140.736 123.173 139.978 124.333C139.219 125.494 139.093 126.96 139.643 128.234C140.43 130.059 140.771 132.009 140.654 134.028C140.289 140.366 135.265 145.476 128.966 145.913C125.417 146.158 122.038 144.962 119.454 142.538C116.867 140.113 115.443 136.82 115.443 133.268C115.443 131.517 115.79 129.823 116.476 128.233C117.025 126.959 116.899 125.494 116.141 124.333C115.383 123.173 114.094 122.474 112.713 122.474H88.1073V107.22C89.3452 107.371 90.6039 107.41 91.8771 107.336C102.296 106.73 110.696 98.3887 111.416 87.9323C111.82 82.0614 109.851 76.4678 105.871 72.1827C101.946 67.9569 96.3974 65.5333 90.647 65.5333C89.7918 65.5333 88.9444 65.5844 88.1069 65.6866V46.3101C88.1069 44.034 86.2706 42.189 84.0053 42.189H12.7755C5.73152 42.189 0.000410156 47.947 0.000410156 55.0249V117.879C0.000410156 121.24 1.29281 124.303 3.4043 126.594C1.2924 128.885 0 131.948 0 135.31V198.164C0 205.242 5.73111 211 12.7751 211H159.338C166.382 211 172.113 205.242 172.113 198.164V135.31C172.113 128.249 166.395 122.491 159.338 122.474ZM8.20353 55.0258C8.20353 52.4929 10.2543 50.432 12.7755 50.432H79.9042V71.0333C79.9042 72.4217 80.5998 73.7166 81.7548 74.4786C82.9102 75.2406 84.3691 75.3667 85.6369 74.8144C87.2189 74.1254 88.9046 73.7763 90.6474 73.7763C94.1834 73.7763 97.4601 75.2076 99.8739 77.8068C102.285 80.403 103.478 83.7972 103.232 87.364C102.796 93.6923 97.7111 98.7411 91.4037 99.1079C89.3931 99.2237 87.4531 98.8824 85.6369 98.0916C84.3691 97.5394 82.9102 97.6659 81.7548 98.4275C80.5998 99.1895 79.9042 100.484 79.9042 101.873V122.474H59.4005C58.0187 122.474 56.7299 123.173 55.9716 124.333C55.2132 125.494 55.0877 126.96 55.6373 128.234C56.3231 129.823 56.6709 131.517 56.6709 133.268C56.6709 136.821 55.2464 140.113 52.6596 142.539C50.0756 144.962 46.6946 146.158 43.148 145.914C36.8493 145.476 31.8244 140.366 31.4598 134.029C31.3437 132.009 31.6837 130.059 32.4712 128.234C33.0209 126.96 32.8949 125.494 32.1366 124.334C31.3782 123.173 30.0895 122.474 28.7081 122.474H12.7907C12.7854 122.474 12.7805 122.474 12.7751 122.474C12.7719 122.474 12.7682 122.474 12.7649 122.474C10.2486 122.469 8.20353 120.41 8.20353 117.881V55.0258ZM79.9038 202.758H12.7751C10.2539 202.758 8.20312 200.697 8.20312 198.164V135.31C8.20312 132.78 10.2486 130.722 12.7649 130.716H12.7755H23.3846C23.2345 131.96 23.196 133.224 23.2694 134.504C23.8723 144.972 32.1743 153.412 42.5808 154.136C43.082 154.171 43.5807 154.188 44.077 154.188C49.3689 154.188 54.3568 152.22 58.2557 148.564C62.4615 144.621 64.8736 139.045 64.8736 133.268C64.8736 132.408 64.8227 131.557 64.721 130.715H79.9038V151.316C79.9038 152.705 80.5994 154 81.7544 154.761C82.9094 155.524 84.3687 155.65 85.6361 155.097C87.4531 154.307 89.3919 153.965 91.4033 154.082C97.7107 154.448 102.796 159.497 103.232 165.825C103.478 169.392 102.285 172.786 99.8739 175.382C97.4597 177.981 94.1834 179.413 90.647 179.413C88.9042 179.413 87.2185 179.063 85.6361 178.375C84.3691 177.823 82.9098 177.949 81.7544 178.711C80.5994 179.473 79.9038 180.768 79.9038 182.156V202.758ZM163.91 198.164C163.91 200.697 161.858 202.758 159.338 202.758H88.1069V187.502C88.9444 187.605 89.7918 187.656 90.647 187.656C96.3974 187.656 101.946 185.232 105.871 181.006C109.851 176.721 111.82 171.128 111.416 165.257C110.696 154.801 102.296 146.459 91.8775 145.853C90.6035 145.779 89.3452 145.818 88.1073 145.969V130.715H107.393C107.291 131.557 107.24 132.408 107.24 133.268C107.24 139.045 109.652 144.62 113.858 148.564C118.123 152.563 123.689 154.543 129.533 154.135C139.94 153.412 148.242 144.972 148.844 134.504C148.918 133.223 148.879 131.959 148.73 130.715H159.35C161.864 130.721 163.91 132.782 163.91 135.309V198.164H163.91Z" fill="#2253FF"/>
<path d="M197.225 0H125.995C123.73 0 121.894 1.84501 121.894 4.12109V28.8431C121.894 30.2315 122.589 31.5264 123.744 32.2879C124.899 33.0495 126.358 33.176 127.626 32.6242C129.208 31.9356 130.894 31.5861 132.636 31.5861C136.172 31.5861 139.449 33.0174 141.863 35.6166C144.275 38.2128 145.467 41.6074 145.222 45.1738C144.786 51.5021 139.7 56.5509 133.393 56.9177C131.383 57.0351 129.443 56.6926 127.626 55.9018C126.359 55.3508 124.899 55.4769 123.744 56.2385C122.589 57.0005 121.894 58.2953 121.894 59.6833V84.4054C121.894 86.6814 123.73 88.5265 125.995 88.5265H145.28C145.178 89.368 145.127 90.2194 145.127 91.0786C145.127 96.8564 147.539 102.432 151.745 106.375C155.644 110.032 160.632 111.999 165.924 111.999C166.42 111.999 166.919 111.981 167.42 111.947C177.827 111.223 186.129 102.783 186.731 92.315C186.805 91.0354 186.766 89.7706 186.616 88.5269H197.225C204.269 88.5269 210 82.7685 210 75.6909V63.9536C210 61.6775 208.164 59.8325 205.899 59.8325C203.634 59.8325 201.797 61.6775 201.797 63.9536V75.6909C201.797 78.2241 199.747 80.2847 197.225 80.2847H181.294C179.912 80.2847 178.623 80.9836 177.865 82.1441C177.107 83.3046 176.981 84.7709 177.53 86.0443C178.318 87.87 178.658 89.8196 178.541 91.839C178.177 98.1764 173.152 103.286 166.854 103.724C163.305 103.969 159.926 102.773 157.342 100.35C154.755 97.9242 153.33 94.6319 153.33 91.0791C153.33 89.328 153.678 87.6342 154.364 86.0443C154.913 84.7705 154.787 83.3046 154.029 82.1441C153.271 80.9836 151.982 80.2847 150.6 80.2847H130.097V65.0309C131.334 65.1817 132.592 65.22 133.866 65.1463C144.285 64.5409 152.685 56.1994 153.405 45.7433C153.809 39.872 151.84 34.2788 147.86 29.9937C143.935 25.768 138.386 23.3443 132.636 23.3443C131.781 23.3443 130.934 23.3959 130.096 23.4977V8.24219H197.225C199.747 8.24219 201.797 10.3031 201.797 12.836V26.6936C201.797 28.9696 203.634 30.8147 205.899 30.8147C208.164 30.8147 210 28.9696 210 26.6936V12.836C210 5.7584 204.269 0 197.225 0Z" fill="#2253FF"/>
<path d="M209.307 43.1108C208.343 41.6326 206.456 40.9563 204.773 41.4397C203.144 41.907 201.957 43.3684 201.812 45.0617C201.665 46.7716 202.653 48.4451 204.206 49.1523C205.746 49.8537 207.602 49.5109 208.798 48.3116C210.167 46.9397 210.377 44.7238 209.307 43.1108Z" fill="#2253FF"/>
</g>
<defs>
<clipPath id="clip0_1043_117">
<rect width="210" height="211" fill="white"/>
</clipPath>
</defs>
</svg>
