<svg width="240" height="239" viewBox="0 0 240 239" fill="none" xmlns="http://www.w3.org/2000/svg">
<path d="M119.561 227.791C179.371 227.791 227.856 179.306 227.856 119.497C227.856 59.6873 179.371 11.2021 119.561 11.2021C59.7518 11.2021 11.2666 59.6873 11.2666 119.497C11.2666 179.306 59.7518 227.791 119.561 227.791Z" stroke="#2253FF" stroke-width="8" stroke-miterlimit="10" stroke-linecap="round" stroke-linejoin="round"/>
<path d="M93.4219 138.168V139.811C93.4219 149.221 101.04 156.839 110.45 156.839H128.674C138.084 156.839 145.702 149.221 145.702 139.811C145.702 132.193 140.698 125.546 133.379 123.455L105.82 115.613C98.5005 113.521 93.4966 106.874 93.4966 99.2564C93.4966 89.846 101.115 82.228 110.525 82.228H128.748C138.159 82.228 145.777 89.846 145.777 99.2564V100.9" stroke="#2253FF" stroke-width="8" stroke-miterlimit="10" stroke-linecap="round" stroke-linejoin="round"/>
<path d="M119.562 171.777V156.84" stroke="#2253FF" stroke-width="8" stroke-miterlimit="10" stroke-linecap="round" stroke-linejoin="round"/>
<path d="M119.562 82.154V67.2168" stroke="#2253FF" stroke-width="8" stroke-miterlimit="10" stroke-linecap="round" stroke-linejoin="round"/>
<path d="M93.4208 45.6318C62.9489 56.3866 41.1406 85.3648 41.1406 119.496C41.1406 153.628 62.9489 182.606 93.4208 193.361" stroke="#2253FF" stroke-width="8" stroke-miterlimit="10" stroke-linecap="round" stroke-linejoin="round"/>
<path d="M145.703 193.361C176.175 182.606 197.983 153.628 197.983 119.496C197.983 85.3648 176.175 56.3866 145.703 45.6318" stroke="#2253FF" stroke-width="8" stroke-miterlimit="10" stroke-linecap="round" stroke-linejoin="round"/>
</svg>
