<svg width="239" height="239" viewBox="0 0 239 239" fill="none" xmlns="http://www.w3.org/2000/svg">
<path d="M206.701 110.397C213.7 105.479 218.335 97.2978 218.335 88.0764C218.335 72.9912 206.134 60.7905 191.049 60.7905C175.963 60.7905 163.763 72.9912 163.763 88.0764C163.763 97.2978 168.35 105.479 175.396 110.397C169.39 112.478 163.905 115.693 159.27 119.855C152.886 114.417 145.367 110.255 137.139 107.796C147.117 101.743 153.832 90.7246 153.832 78.193C153.832 59.0881 138.368 43.6245 119.264 43.6245C100.159 43.6245 84.6951 59.1354 84.6951 78.193C84.6951 90.7246 91.3629 101.743 101.388 107.796C93.2544 110.255 85.83 114.369 79.4933 119.713C74.8589 115.646 69.4679 112.478 63.5568 110.444C70.5556 105.526 75.1899 97.3451 75.1899 88.1237C75.1899 73.0384 62.9893 60.8378 47.904 60.8378C32.8188 60.8378 20.6181 73.0384 20.6181 88.1237C20.6181 97.3451 25.2052 105.526 32.2513 110.444C13.4774 116.923 0 134.751 0 155.7V158.821C0 158.916 0.0945786 159.01 0.189157 159.01H58.0239C57.6929 161.611 57.5038 164.307 57.5038 167.002V170.218C57.5038 184.121 68.7586 195.376 82.6617 195.376H155.96C169.863 195.376 181.118 184.121 181.118 170.218V167.002C181.118 164.307 180.929 161.611 180.598 159.01H238.811C238.905 159.01 239 158.916 239 158.821V155.7C238.905 134.704 225.475 116.876 206.701 110.397ZM171.329 88.0291C171.329 77.1526 180.172 68.3095 191.049 68.3095C201.925 68.3095 210.768 77.1526 210.768 88.0291C210.768 98.7638 202.114 107.512 191.427 107.749C191.285 107.749 191.191 107.749 191.049 107.749C190.907 107.749 190.812 107.749 190.67 107.749C179.936 107.56 171.329 98.8111 171.329 88.0291ZM92.1668 78.193C92.1668 63.2969 104.273 51.1908 119.169 51.1908C134.065 51.1908 146.171 63.2969 146.171 78.193C146.171 92.5689 134.869 104.344 120.73 105.148C120.209 105.148 119.689 105.148 119.169 105.148C118.649 105.148 118.129 105.148 117.608 105.148C103.469 104.344 92.1668 92.5689 92.1668 78.193ZM28.0425 88.0291C28.0425 77.1526 36.8856 68.3095 47.7622 68.3095C58.6387 68.3095 67.4818 77.1526 67.4818 88.0291C67.4818 98.7638 58.8279 107.512 48.1405 107.749C47.9986 107.749 47.904 107.749 47.7622 107.749C47.6203 107.749 47.5257 107.749 47.3839 107.749C36.6965 107.56 28.0425 98.8111 28.0425 88.0291ZM59.348 151.397H7.66086C9.78888 131.252 26.813 115.457 47.4784 115.315C47.573 115.315 47.6676 115.315 47.7622 115.315C47.8567 115.315 47.9513 115.315 48.0459 115.315C57.8821 115.362 66.867 119.004 73.8186 124.915C67.0089 132.292 61.949 141.371 59.348 151.397ZM173.457 170.218C173.457 179.912 165.56 187.81 155.865 187.81H82.5671C72.8728 187.81 64.9755 179.912 64.9755 170.218V167.002C64.9755 137.636 88.4309 113.613 117.608 112.761C118.129 112.809 118.696 112.809 119.216 112.809C119.736 112.809 120.304 112.809 120.824 112.761C150.002 113.613 173.457 137.636 173.457 167.002V170.218ZM179.084 151.397C176.484 141.419 171.518 132.481 164.756 125.104C171.755 119.051 180.834 115.41 190.765 115.315C190.86 115.315 190.954 115.315 191.049 115.315C191.143 115.315 191.238 115.315 191.332 115.315C211.998 115.457 229.022 131.252 231.15 151.397H179.084Z" fill="#2253FF"/>
</svg>
